<svg version="1.1" viewBox="0.0 0.0 209.48818897637796 105.60892388451444" fill="none" stroke="none" stroke-linecap="square" stroke-miterlimit="10" xmlns:xlink="http://www.w3.org/1999/xlink" xmlns="http://www.w3.org/2000/svg"><clipPath id="p.0"><path d="m0 0l209.48819 0l0 105.608925l-209.48819 0l0 -105.608925z" clip-rule="nonzero"/></clipPath><g clip-path="url(#p.0)"><path fill="#000000" fill-opacity="0.0" d="m0 0l209.48819 0l0 105.608925l-209.48819 0z" fill-rule="evenodd"/><path fill="#0a60fe" d="m1.6567643 1.1590118l68.80699 0l51.64454 51.644535l-51.64454 51.644535l-68.80699 0l51.644535 -51.644535z" fill-rule="evenodd"/><path stroke="#000000" stroke-width="1.0" stroke-linejoin="round" stroke-linecap="butt" d="m1.6567643 1.1590118l68.80699 0l51.64454 51.644535l-51.64454 51.644535l-68.80699 0l51.644535 -51.644535z" fill-rule="evenodd"/><path fill="#0a60fe" d="m87.37999 1.1590118l68.80699 0l51.64453 51.644535l-51.64453 51.644535l-68.80699 0l51.64453 -51.644535z" fill-rule="evenodd"/><path stroke="#000000" stroke-width="1.0" stroke-linejoin="round" stroke-linecap="butt" d="m87.37999 1.1590118l68.80699 0l51.64453 51.644535l-51.64453 51.644535l-68.80699 0l51.64453 -51.644535z" fill-rule="evenodd"/></g></svg>